<?xml version="1.0" encoding="UTF-8" standalone="no"?>
<svg
   xmlns:dc="http://purl.org/dc/elements/1.1/"
   xmlns:cc="http://creativecommons.org/ns#"
   xmlns:rdf="http://www.w3.org/1999/02/22-rdf-syntax-ns#"
   xmlns:svg="http://www.w3.org/2000/svg"
   xmlns="http://www.w3.org/2000/svg"
   xmlns:sodipodi="http://sodipodi.sourceforge.net/DTD/sodipodi-0.dtd"
   xmlns:inkscape="http://www.inkscape.org/namespaces/inkscape"
   width="100"
   height="100"
   version="1.1"
   viewBox="0 0 26.458 26.458"
   id="svg161"
   sodipodi:docname="logo.svg"
   inkscape:version="1.0.1 (3bc2e813f5, 2020-09-07)">
  <metadata
     id="metadata167">
    <rdf:RDF>
      <cc:Work
         rdf:about="">
        <dc:format>image/svg+xml</dc:format>
        <dc:type
           rdf:resource="http://purl.org/dc/dcmitype/StillImage" />
        <dc:title />
      </cc:Work>
    </rdf:RDF>
  </metadata>
  <defs
     id="defs165" />
  <sodipodi:namedview
     pagecolor="#ffffff"
     bordercolor="#666666"
     borderopacity="1"
     objecttolerance="10"
     gridtolerance="10"
     guidetolerance="10"
     inkscape:pageopacity="0"
     inkscape:pageshadow="2"
     inkscape:window-width="1920"
     inkscape:window-height="1016"
     id="namedview163"
     showgrid="false"
     inkscape:zoom="4.125"
     inkscape:cx="27.607931"
     inkscape:cy="80.296986"
     inkscape:window-x="1440"
     inkscape:window-y="27"
     inkscape:window-maximized="1"
     inkscape:current-layer="svg161"
     inkscape:document-rotation="0" />
  <g
     transform="matrix(0.82937659,0,0,0.82937659,-38.81228,35.796972)"
     style="fill:#ffffff;fill-opacity:1;stroke:none;stroke-width:0.53555"
     id="g159">
    <path
       d="m 51.159,-40.334 c -0.0114,0 -0.0226,5.5e-4 -0.0339,8.2e-4 -0.013,2.7e-4 -0.0261,4.1e-4 -0.0391,9.61e-4 -0.79265,0.0368 -1.4245,0.66872 -1.4612,1.4614 -5.51e-4,0.0124 -6.8e-4,0.0248 -9.61e-4,0.0372 -2.7e-4,0.0119 -9.5e-4,0.0237 -9.5e-4,0.0357 v 10e-4 23.167 c 0,0.85103 0.68508,1.5362 1.5361,1.5362 0.85098,0 1.5361,-0.68513 1.5361,-1.5362 v -19.46 l 5.5558,5.5561 c 0.60172,0.60176 1.5706,0.60176 2.1723,0 0.6017,-0.60176 0.60172,-1.5706 0,-2.1724 l -8.1364,-8.1369 c -0.21666,-0.23394 -0.50547,-0.39975 -0.83192,-0.46299 -0.003,-6.9e-4 -0.007,-10e-4 -0.0102,-0.002 -0.0198,-0.004 -0.0396,-0.007 -0.0596,-0.0101 -0.0109,-0.002 -0.0217,-0.003 -0.0326,-0.004 -0.0138,-0.002 -0.0276,-0.004 -0.0416,-0.005 -0.0154,-0.002 -0.0308,-0.002 -0.0463,-0.004 -0.01,-6.8e-4 -0.0189,-0.002 -0.0285,-0.002 -0.0253,-0.001 -0.0505,-0.002 -0.0758,-0.002 h -10e-4 z"
       style="fill:#ffffff;fill-opacity:1;stroke:none;stroke-width:0.53555;stroke-linecap:round;stroke-linejoin:round"
       id="path153" />
    <path
       d="m 74.328,-34.886 c -0.2285,0 -0.45686,0.0514 -0.66726,0.15325 -0.002,8.2e-4 -0.004,0.002 -0.005,0.003 -0.0182,0.009 -0.0363,0.018 -0.0541,0.0277 -0.0111,0.006 -0.022,0.0122 -0.033,0.0184 -0.009,0.005 -0.0176,0.01 -0.0263,0.0151 -0.12772,0.0757 -0.24338,0.16934 -0.3436,0.27762 l -6.7705,6.7709 c -0.60172,0.60176 -0.60172,1.5707 0,2.1725 0.60173,0.60176 1.5706,0.60176 2.1723,0 l 4.1903,-4.1906 v 14.008 c 0,0.85103 0.68508,1.5362 1.5361,1.5362 0.85102,0 1.5361,-0.68513 1.5361,-1.5362 v -17.631 c 0.024,-0.42125 -0.12534,-0.85033 -0.44853,-1.1735 -0.30085,-0.30089 -0.69348,-0.45138 -1.0861,-0.45138 z"
       style="fill:#ffffff;fill-opacity:1;stroke:none;stroke-width:0.53555;stroke-linecap:round;stroke-linejoin:round"
       id="path155" />
    <path
       d="m 74.325,-40.334 c -0.39264,0 -0.78527,0.15042 -1.0861,0.4513 l -18.515,18.516 c -0.60173,0.60177 -0.60173,1.5707 0,2.1725 0.60173,0.6018 1.5706,0.60177 2.1723,0 l 4.2012,-4.2015 v 7.2105 c 0,0.85102 0.6851,1.5362 1.5361,1.5362 0.85097,0 1.536,-0.68514 1.536,-1.5362 v -10.283 l 11.241,-11.242 c 0.60174,-0.60177 0.60174,-1.5706 0,-2.1724 v -7e-5 c -0.30086,-0.30088 -0.69348,-0.4513 -1.0861,-0.4513 z"
       style="fill:#ffffff;fill-opacity:1;stroke:none;stroke-width:0.53555;stroke-linecap:round;stroke-linejoin:round"
       id="path157" />
  </g>
</svg>
